<svg id="Livello_2" data-name="Livello 2" xmlns="http://www.w3.org/2000/svg" viewBox="0 0 21.89 65.17"><defs><style>.cls-1{fill:#fff;}</style></defs><title>shoe</title><path class="cls-1" d="M51.55,83c2.21.06,3.91-2.28,4.61-3.27,3.81-5.4,2.23-11.15,3.14-23.06C60,47,61.53,47.43,61.4,39.9c-.08-4.51-.74-11.72-5.24-17.82-1.4-1.9-3.11-3.85-5.77-4.2-3.77-.48-6.76,2.77-7.22,3.27-1.23,1.34-2.39,3.29-3.15,8.39a49.76,49.76,0,0,0,1.46,20.84c1.65,5.68,2.19,4.21,3.15,8.39,2.25,9.74-1.27,15.11,2.73,21.08C48,80.78,49.47,82.94,51.55,83Z" transform="translate(-39.52 -17.83)"/></svg>