<?xml version="1.0" encoding="utf-8"?>
<!-- Generator: Adobe Illustrator 24.0.2, SVG Export Plug-In . SVG Version: 6.00 Build 0)  -->
<svg version="1.1" id="Livello_2_1_" xmlns="http://www.w3.org/2000/svg" xmlns:xlink="http://www.w3.org/1999/xlink" x="0px"
	 y="0px" viewBox="0 0 98 75.1" style="enable-background:new 0 0 98 75.1;" xml:space="preserve">
<style type="text/css">
	.st0{fill:#FFFFFF;}
	.st1{fill:none;stroke:#FF0000;stroke-width:4;stroke-miterlimit:10;}
</style>
<title>TShirt</title>
<g>
	<path class="st0" d="M95.7,24.4L74.1,3.3c-1-0.9-1.6-0.9-2.9-0.9h-6.9c-1.4,0-3.1-0.4-3.9,0.9c-0.3,0.5-0.6,0.9-1,1.3
		c-3.6,4.3-9.3,6.4-14.9,4.7c-3.2-1.1-5.9-3.2-7.7-6c-0.6-0.9-1.3-0.8-2.3-0.8h-6.9c-1.2,0-2.1-0.1-3,0.7C17,10,9.7,17.3,2.3,24.4
		c-0.5,0.6-0.5,1.4,0,2l13.5,13.1c0.6,0.5,1.5,0.5,2,0l6.2-5.4c0.2,12.4,0.3,24.9,0.4,37.3c0,0.8,0.7,1.4,1.4,1.4h46.6
		c0.8,0,1.4-0.6,1.4-1.4v-37l5.7,5.6c0.6,0.5,1.5,0.5,2,0l13.9-13.6C96.2,25.8,96.2,24.9,95.7,24.4z M4.4,24.4L4.4,24.4L4.4,24.4
		L4.4,24.4z"/>
	<polygon class="st0" points="4.4,24.4 4.4,24.4 4.4,24.4 	"/>
</g>
<g>
	<path class="st1" d="M71.6,29.1"/>
</g>
</svg>
